<mxfile host="app.diagrams.net" agent="Mozilla/5.0 (Windows NT 10.0; Win64; x64) AppleWebKit/537.36 (KHTML, like Gecko) Chrome/139.0.0.0 Safari/537.36" version="28.1.0">
  <diagram name="Page-1" id="wtx9cFJXlOjw-5kE8WdE">
    <mxGraphModel dx="2407" dy="853" grid="1" gridSize="10" guides="1" tooltips="1" connect="1" arrows="1" fold="1" page="1" pageScale="1" pageWidth="827" pageHeight="1169" math="0" shadow="0">
      <root>
        <mxCell id="0" />
        <mxCell id="1" parent="0" />
        <mxCell id="7YWgherM-hQTYsUhk_8s-8" style="edgeStyle=orthogonalEdgeStyle;rounded=0;orthogonalLoop=1;jettySize=auto;html=1;exitX=0.5;exitY=1;exitDx=0;exitDy=0;" edge="1" parent="1" source="7YWgherM-hQTYsUhk_8s-1">
          <mxGeometry relative="1" as="geometry">
            <mxPoint x="40" y="120" as="targetPoint" />
          </mxGeometry>
        </mxCell>
        <mxCell id="7YWgherM-hQTYsUhk_8s-1" value="" style="ellipse;whiteSpace=wrap;html=1;aspect=fixed;fillColor=#f8cecc;strokeColor=#b85450;" vertex="1" parent="1">
          <mxGeometry x="20" y="50" width="40" height="40" as="geometry" />
        </mxCell>
        <mxCell id="7YWgherM-hQTYsUhk_8s-3" value="User" style="text;html=1;align=center;verticalAlign=middle;whiteSpace=wrap;rounded=0;" vertex="1" parent="1">
          <mxGeometry x="10" y="10" width="60" height="30" as="geometry" />
        </mxCell>
        <mxCell id="7YWgherM-hQTYsUhk_8s-4" value="sistem login" style="text;html=1;align=center;verticalAlign=middle;whiteSpace=wrap;rounded=0;" vertex="1" parent="1">
          <mxGeometry x="160" y="10" width="60" height="30" as="geometry" />
        </mxCell>
        <mxCell id="7YWgherM-hQTYsUhk_8s-5" value="sistem admin" style="text;html=1;align=center;verticalAlign=middle;whiteSpace=wrap;rounded=0;" vertex="1" parent="1">
          <mxGeometry x="295" y="10" width="60" height="30" as="geometry" />
        </mxCell>
        <mxCell id="7YWgherM-hQTYsUhk_8s-6" value="sistem guru" style="text;html=1;align=center;verticalAlign=middle;whiteSpace=wrap;rounded=0;" vertex="1" parent="1">
          <mxGeometry x="450" y="10" width="60" height="30" as="geometry" />
        </mxCell>
        <mxCell id="7YWgherM-hQTYsUhk_8s-7" value="sistem siswa" style="text;html=1;align=center;verticalAlign=middle;whiteSpace=wrap;rounded=0;" vertex="1" parent="1">
          <mxGeometry x="600" y="10" width="60" height="30" as="geometry" />
        </mxCell>
        <mxCell id="7YWgherM-hQTYsUhk_8s-10" style="edgeStyle=orthogonalEdgeStyle;rounded=0;orthogonalLoop=1;jettySize=auto;html=1;exitX=0.5;exitY=1;exitDx=0;exitDy=0;" edge="1" parent="1" source="7YWgherM-hQTYsUhk_8s-9">
          <mxGeometry relative="1" as="geometry">
            <mxPoint x="190" y="190" as="targetPoint" />
          </mxGeometry>
        </mxCell>
        <mxCell id="7YWgherM-hQTYsUhk_8s-9" value="input login" style="shape=parallelogram;perimeter=parallelogramPerimeter;whiteSpace=wrap;html=1;fixedSize=1;fillColor=#dae8fc;strokeColor=#6c8ebf;" vertex="1" parent="1">
          <mxGeometry x="-15" y="120" width="110" height="30" as="geometry" />
        </mxCell>
        <mxCell id="7YWgherM-hQTYsUhk_8s-18" style="edgeStyle=orthogonalEdgeStyle;rounded=0;orthogonalLoop=1;jettySize=auto;html=1;exitX=0;exitY=0.5;exitDx=0;exitDy=0;entryX=1;entryY=0;entryDx=0;entryDy=0;" edge="1" parent="1" source="7YWgherM-hQTYsUhk_8s-11" target="7YWgherM-hQTYsUhk_8s-17">
          <mxGeometry relative="1" as="geometry" />
        </mxCell>
        <mxCell id="7YWgherM-hQTYsUhk_8s-25" style="edgeStyle=orthogonalEdgeStyle;rounded=0;orthogonalLoop=1;jettySize=auto;html=1;exitX=0.5;exitY=1;exitDx=0;exitDy=0;entryX=0.5;entryY=0;entryDx=0;entryDy=0;" edge="1" parent="1" source="7YWgherM-hQTYsUhk_8s-11" target="7YWgherM-hQTYsUhk_8s-23">
          <mxGeometry relative="1" as="geometry" />
        </mxCell>
        <mxCell id="7YWgherM-hQTYsUhk_8s-11" value="login valid?" style="rhombus;whiteSpace=wrap;html=1;fillColor=#fff2cc;strokeColor=#d6b656;" vertex="1" parent="1">
          <mxGeometry x="150" y="190" width="80" height="80" as="geometry" />
        </mxCell>
        <mxCell id="7YWgherM-hQTYsUhk_8s-14" value="Ya" style="text;html=1;align=center;verticalAlign=middle;whiteSpace=wrap;rounded=0;" vertex="1" parent="1">
          <mxGeometry x="200" y="270" width="60" height="30" as="geometry" />
        </mxCell>
        <mxCell id="7YWgherM-hQTYsUhk_8s-15" value="Tidak" style="text;html=1;align=center;verticalAlign=middle;whiteSpace=wrap;rounded=0;" vertex="1" parent="1">
          <mxGeometry x="100" y="230" width="60" height="30" as="geometry" />
        </mxCell>
        <mxCell id="7YWgherM-hQTYsUhk_8s-17" value="menampilkan eror login" style="rounded=1;whiteSpace=wrap;html=1;fillColor=#f8cecc;strokeColor=#b85450;" vertex="1" parent="1">
          <mxGeometry x="-20" y="280" width="110" height="30" as="geometry" />
        </mxCell>
        <mxCell id="7YWgherM-hQTYsUhk_8s-19" style="edgeStyle=orthogonalEdgeStyle;rounded=0;orthogonalLoop=1;jettySize=auto;html=1;exitX=0.5;exitY=0;exitDx=0;exitDy=0;entryX=0.109;entryY=1.1;entryDx=0;entryDy=0;entryPerimeter=0;" edge="1" parent="1" source="7YWgherM-hQTYsUhk_8s-17" target="7YWgherM-hQTYsUhk_8s-9">
          <mxGeometry relative="1" as="geometry" />
        </mxCell>
        <mxCell id="7YWgherM-hQTYsUhk_8s-32" style="edgeStyle=orthogonalEdgeStyle;rounded=0;orthogonalLoop=1;jettySize=auto;html=1;exitX=0.5;exitY=1;exitDx=0;exitDy=0;" edge="1" parent="1" source="7YWgherM-hQTYsUhk_8s-20">
          <mxGeometry relative="1" as="geometry">
            <mxPoint x="325" y="430" as="targetPoint" />
          </mxGeometry>
        </mxCell>
        <mxCell id="7YWgherM-hQTYsUhk_8s-20" value="Loading dashboard admin" style="rounded=1;whiteSpace=wrap;html=1;fillColor=#dae8fc;strokeColor=#6c8ebf;" vertex="1" parent="1">
          <mxGeometry x="270" y="360" width="110" height="30" as="geometry" />
        </mxCell>
        <mxCell id="7YWgherM-hQTYsUhk_8s-21" value="Loading dashboard siswa" style="rounded=1;whiteSpace=wrap;html=1;fillColor=#dae8fc;strokeColor=#6c8ebf;" vertex="1" parent="1">
          <mxGeometry x="590" y="360" width="110" height="30" as="geometry" />
        </mxCell>
        <mxCell id="7YWgherM-hQTYsUhk_8s-33" style="edgeStyle=orthogonalEdgeStyle;rounded=0;orthogonalLoop=1;jettySize=auto;html=1;exitX=0.5;exitY=1;exitDx=0;exitDy=0;" edge="1" parent="1" source="7YWgherM-hQTYsUhk_8s-22">
          <mxGeometry relative="1" as="geometry">
            <mxPoint x="480" y="430" as="targetPoint" />
          </mxGeometry>
        </mxCell>
        <mxCell id="7YWgherM-hQTYsUhk_8s-22" value="Loading dashboard guru" style="rounded=1;whiteSpace=wrap;html=1;fillColor=#dae8fc;strokeColor=#6c8ebf;" vertex="1" parent="1">
          <mxGeometry x="425" y="360" width="110" height="30" as="geometry" />
        </mxCell>
        <mxCell id="7YWgherM-hQTYsUhk_8s-26" style="edgeStyle=orthogonalEdgeStyle;rounded=0;orthogonalLoop=1;jettySize=auto;html=1;exitX=1;exitY=0.5;exitDx=0;exitDy=0;entryX=0.5;entryY=0;entryDx=0;entryDy=0;" edge="1" parent="1" source="7YWgherM-hQTYsUhk_8s-23" target="7YWgherM-hQTYsUhk_8s-20">
          <mxGeometry relative="1" as="geometry" />
        </mxCell>
        <mxCell id="7YWgherM-hQTYsUhk_8s-27" style="edgeStyle=orthogonalEdgeStyle;rounded=0;orthogonalLoop=1;jettySize=auto;html=1;exitX=1;exitY=0.5;exitDx=0;exitDy=0;entryX=0.5;entryY=0;entryDx=0;entryDy=0;" edge="1" parent="1" source="7YWgherM-hQTYsUhk_8s-23" target="7YWgherM-hQTYsUhk_8s-22">
          <mxGeometry relative="1" as="geometry" />
        </mxCell>
        <mxCell id="7YWgherM-hQTYsUhk_8s-23" value="Cek role user" style="rounded=1;whiteSpace=wrap;html=1;fillColor=#dae8fc;strokeColor=#6c8ebf;" vertex="1" parent="1">
          <mxGeometry x="142.5" y="310" width="95" height="30" as="geometry" />
        </mxCell>
        <mxCell id="7YWgherM-hQTYsUhk_8s-28" style="edgeStyle=orthogonalEdgeStyle;rounded=0;orthogonalLoop=1;jettySize=auto;html=1;exitX=1;exitY=0.5;exitDx=0;exitDy=0;entryX=0.591;entryY=-0.1;entryDx=0;entryDy=0;entryPerimeter=0;" edge="1" parent="1" source="7YWgherM-hQTYsUhk_8s-23" target="7YWgherM-hQTYsUhk_8s-21">
          <mxGeometry relative="1" as="geometry" />
        </mxCell>
        <mxCell id="7YWgherM-hQTYsUhk_8s-42" style="edgeStyle=orthogonalEdgeStyle;rounded=0;orthogonalLoop=1;jettySize=auto;html=1;exitX=0.5;exitY=1;exitDx=0;exitDy=0;entryX=0.5;entryY=0;entryDx=0;entryDy=0;" edge="1" parent="1" source="7YWgherM-hQTYsUhk_8s-29" target="7YWgherM-hQTYsUhk_8s-40">
          <mxGeometry relative="1" as="geometry" />
        </mxCell>
        <mxCell id="7YWgherM-hQTYsUhk_8s-29" value="input&lt;div&gt;tambah,edit dan&amp;nbsp;&lt;/div&gt;&lt;div&gt;hapus&lt;/div&gt;" style="shape=parallelogram;perimeter=parallelogramPerimeter;whiteSpace=wrap;html=1;fixedSize=1;fillColor=#dae8fc;strokeColor=#6c8ebf;" vertex="1" parent="1">
          <mxGeometry x="250" y="430" width="140" height="40" as="geometry" />
        </mxCell>
        <mxCell id="7YWgherM-hQTYsUhk_8s-41" style="edgeStyle=orthogonalEdgeStyle;rounded=0;orthogonalLoop=1;jettySize=auto;html=1;exitX=0.5;exitY=1;exitDx=0;exitDy=0;entryX=0.5;entryY=0;entryDx=0;entryDy=0;" edge="1" parent="1" source="7YWgherM-hQTYsUhk_8s-30" target="7YWgherM-hQTYsUhk_8s-39">
          <mxGeometry relative="1" as="geometry" />
        </mxCell>
        <mxCell id="7YWgherM-hQTYsUhk_8s-30" value="input&lt;div&gt;tambah nilai&lt;/div&gt;" style="shape=parallelogram;perimeter=parallelogramPerimeter;whiteSpace=wrap;html=1;fixedSize=1;fillColor=#dae8fc;strokeColor=#6c8ebf;" vertex="1" parent="1">
          <mxGeometry x="410" y="430" width="140" height="40" as="geometry" />
        </mxCell>
        <mxCell id="7YWgherM-hQTYsUhk_8s-37" style="edgeStyle=orthogonalEdgeStyle;rounded=0;orthogonalLoop=1;jettySize=auto;html=1;exitX=0.5;exitY=1;exitDx=0;exitDy=0;" edge="1" parent="1" source="7YWgherM-hQTYsUhk_8s-35">
          <mxGeometry relative="1" as="geometry">
            <mxPoint x="655" y="520" as="targetPoint" />
          </mxGeometry>
        </mxCell>
        <mxCell id="7YWgherM-hQTYsUhk_8s-35" value="Memilih mata pelajaran" style="rounded=1;whiteSpace=wrap;html=1;fillColor=#dae8fc;strokeColor=#6c8ebf;" vertex="1" parent="1">
          <mxGeometry x="600" y="430" width="110" height="40" as="geometry" />
        </mxCell>
        <mxCell id="7YWgherM-hQTYsUhk_8s-36" style="edgeStyle=orthogonalEdgeStyle;rounded=0;orthogonalLoop=1;jettySize=auto;html=1;exitX=0.5;exitY=1;exitDx=0;exitDy=0;entryX=0.418;entryY=0.05;entryDx=0;entryDy=0;entryPerimeter=0;" edge="1" parent="1" source="7YWgherM-hQTYsUhk_8s-21" target="7YWgherM-hQTYsUhk_8s-35">
          <mxGeometry relative="1" as="geometry" />
        </mxCell>
        <mxCell id="7YWgherM-hQTYsUhk_8s-43" style="edgeStyle=orthogonalEdgeStyle;rounded=0;orthogonalLoop=1;jettySize=auto;html=1;exitX=0.5;exitY=1;exitDx=0;exitDy=0;" edge="1" parent="1" source="7YWgherM-hQTYsUhk_8s-38" target="7YWgherM-hQTYsUhk_8s-44">
          <mxGeometry relative="1" as="geometry">
            <mxPoint x="655" y="610" as="targetPoint" />
          </mxGeometry>
        </mxCell>
        <mxCell id="7YWgherM-hQTYsUhk_8s-38" value="Loadiing dashboard mata pelajaran" style="rounded=1;whiteSpace=wrap;html=1;fillColor=#dae8fc;strokeColor=#6c8ebf;" vertex="1" parent="1">
          <mxGeometry x="590" y="520" width="130" height="30" as="geometry" />
        </mxCell>
        <mxCell id="7YWgherM-hQTYsUhk_8s-49" style="edgeStyle=orthogonalEdgeStyle;rounded=0;orthogonalLoop=1;jettySize=auto;html=1;exitX=0.5;exitY=1;exitDx=0;exitDy=0;entryX=0;entryY=0.75;entryDx=0;entryDy=0;" edge="1" parent="1" source="7YWgherM-hQTYsUhk_8s-39" target="7YWgherM-hQTYsUhk_8s-47">
          <mxGeometry relative="1" as="geometry" />
        </mxCell>
        <mxCell id="7YWgherM-hQTYsUhk_8s-39" value="Berhasil menambahkan nilai siswa" style="rhombus;whiteSpace=wrap;html=1;fillColor=#fff2cc;strokeColor=#d6b656;" vertex="1" parent="1">
          <mxGeometry x="440" y="515" width="80" height="85" as="geometry" />
        </mxCell>
        <mxCell id="7YWgherM-hQTYsUhk_8s-50" style="edgeStyle=orthogonalEdgeStyle;rounded=0;orthogonalLoop=1;jettySize=auto;html=1;exitX=0.5;exitY=1;exitDx=0;exitDy=0;entryX=0;entryY=0.5;entryDx=0;entryDy=0;" edge="1" parent="1" source="7YWgherM-hQTYsUhk_8s-40" target="7YWgherM-hQTYsUhk_8s-47">
          <mxGeometry relative="1" as="geometry" />
        </mxCell>
        <mxCell id="7YWgherM-hQTYsUhk_8s-40" value="berhasil menambahkan data guru dan siswa" style="rhombus;whiteSpace=wrap;html=1;fillColor=#fff2cc;strokeColor=#d6b656;" vertex="1" parent="1">
          <mxGeometry x="280" y="510" width="90" height="90" as="geometry" />
        </mxCell>
        <mxCell id="7YWgherM-hQTYsUhk_8s-61" style="edgeStyle=orthogonalEdgeStyle;rounded=0;orthogonalLoop=1;jettySize=auto;html=1;exitX=0.5;exitY=1;exitDx=0;exitDy=0;entryX=1;entryY=0.25;entryDx=0;entryDy=0;" edge="1" parent="1" source="7YWgherM-hQTYsUhk_8s-44" target="7YWgherM-hQTYsUhk_8s-47">
          <mxGeometry relative="1" as="geometry" />
        </mxCell>
        <mxCell id="7YWgherM-hQTYsUhk_8s-44" value="melihat nilai mata pelajaran yang telah di pilih" style="rounded=1;whiteSpace=wrap;html=1;fillColor=#dae8fc;strokeColor=#6c8ebf;" vertex="1" parent="1">
          <mxGeometry x="595" y="580" width="125" height="40" as="geometry" />
        </mxCell>
        <mxCell id="7YWgherM-hQTYsUhk_8s-45" value="Eror menambahkan nilai&amp;nbsp;" style="rounded=1;whiteSpace=wrap;html=1;fillColor=#f8cecc;strokeColor=#b85450;" vertex="1" parent="1">
          <mxGeometry x="370" y="600" width="90" height="40" as="geometry" />
        </mxCell>
        <mxCell id="7YWgherM-hQTYsUhk_8s-46" value="Eror menambahkan data&amp;nbsp;" style="rounded=1;whiteSpace=wrap;html=1;fillColor=#f8cecc;strokeColor=#b85450;" vertex="1" parent="1">
          <mxGeometry x="190" y="580" width="80" height="40" as="geometry" />
        </mxCell>
        <mxCell id="7YWgherM-hQTYsUhk_8s-47" value="Data berhasil di simpan" style="rounded=1;whiteSpace=wrap;html=1;fillColor=#d5e8d4;strokeColor=#82b366;" vertex="1" parent="1">
          <mxGeometry x="500" y="700" width="110" height="50" as="geometry" />
        </mxCell>
        <mxCell id="7YWgherM-hQTYsUhk_8s-51" value="Ya&amp;nbsp;&lt;span style=&quot;color: rgba(0, 0, 0, 0); font-family: monospace; font-size: 0px; text-align: start; text-wrap-mode: nowrap;&quot;&gt;%3CmxGraphModel%3E%3Croot%3E%3CmxCell%20id%3D%220%22%2F%3E%3CmxCell%20id%3D%221%22%20parent%3D%220%22%2F%3E%3CmxCell%20id%3D%222%22%20value%3D%22%22%20style%3D%22rounded%3D1%3BwhiteSpace%3Dwrap%3Bhtml%3D1%3BfillColor%3D%23dae8fc%3BstrokeColor%3D%236c8ebf%3B%22%20vertex%3D%221%22%20parent%3D%221%22%3E%3CmxGeometry%20x%3D%22370%22%20y%3D%22610%22%20width%3D%2270%22%20height%3D%2220%22%20as%3D%22geometry%22%2F%3E%3C%2FmxCell%3E%3C%2Froot%3E%3C%2FmxGraphModel%3E&lt;/span&gt;" style="text;html=1;align=center;verticalAlign=middle;whiteSpace=wrap;rounded=0;" vertex="1" parent="1">
          <mxGeometry x="480" y="630" width="60" height="30" as="geometry" />
        </mxCell>
        <mxCell id="7YWgherM-hQTYsUhk_8s-52" value="Tidak" style="text;html=1;align=center;verticalAlign=middle;whiteSpace=wrap;rounded=0;" vertex="1" parent="1">
          <mxGeometry x="400" y="570" width="60" height="30" as="geometry" />
        </mxCell>
        <mxCell id="7YWgherM-hQTYsUhk_8s-53" style="edgeStyle=orthogonalEdgeStyle;rounded=0;orthogonalLoop=1;jettySize=auto;html=1;exitX=0;exitY=1;exitDx=0;exitDy=0;entryX=0.9;entryY=0.125;entryDx=0;entryDy=0;entryPerimeter=0;" edge="1" parent="1" source="7YWgherM-hQTYsUhk_8s-39" target="7YWgherM-hQTYsUhk_8s-45">
          <mxGeometry relative="1" as="geometry" />
        </mxCell>
        <mxCell id="7YWgherM-hQTYsUhk_8s-54" style="edgeStyle=orthogonalEdgeStyle;rounded=0;orthogonalLoop=1;jettySize=auto;html=1;exitX=0.25;exitY=0;exitDx=0;exitDy=0;entryX=0.2;entryY=1.075;entryDx=0;entryDy=0;entryPerimeter=0;" edge="1" parent="1" source="7YWgherM-hQTYsUhk_8s-45" target="7YWgherM-hQTYsUhk_8s-30">
          <mxGeometry relative="1" as="geometry" />
        </mxCell>
        <mxCell id="7YWgherM-hQTYsUhk_8s-55" value="Tidak" style="text;html=1;align=center;verticalAlign=middle;whiteSpace=wrap;rounded=0;" vertex="1" parent="1">
          <mxGeometry x="260" y="585" width="60" height="30" as="geometry" />
        </mxCell>
        <mxCell id="7YWgherM-hQTYsUhk_8s-56" value="Ya&amp;nbsp;&lt;span style=&quot;color: rgba(0, 0, 0, 0); font-family: monospace; font-size: 0px; text-align: start; text-wrap-mode: nowrap;&quot;&gt;%3CmxGraphModel%3E%3Croot%3E%3CmxCell%20id%3D%220%22%2F%3E%3CmxCell%20id%3D%221%22%20parent%3D%220%22%2F%3E%3CmxCell%20id%3D%222%22%20value%3D%22%22%20style%3D%22rounded%3D1%3BwhiteSpace%3Dwrap%3Bhtml%3D1%3BfillColor%3D%23dae8fc%3BstrokeColor%3D%236c8ebf%3B%22%20vertex%3D%221%22%20parent%3D%221%22%3E%3CmxGeometry%20x%3D%22370%22%20y%3D%22610%22%20width%3D%2270%22%20height%3D%2220%22%20as%3D%22geometry%22%2F%3E%3C%2FmxCell%3E%3C%2Froot%3E%3C%2FmxGraphModel%3E&lt;/span&gt;" style="text;html=1;align=center;verticalAlign=middle;whiteSpace=wrap;rounded=0;" vertex="1" parent="1">
          <mxGeometry x="310" y="605" width="60" height="30" as="geometry" />
        </mxCell>
        <mxCell id="7YWgherM-hQTYsUhk_8s-57" style="edgeStyle=orthogonalEdgeStyle;rounded=0;orthogonalLoop=1;jettySize=auto;html=1;exitX=0;exitY=0.5;exitDx=0;exitDy=0;entryX=0.863;entryY=0;entryDx=0;entryDy=0;entryPerimeter=0;" edge="1" parent="1" source="7YWgherM-hQTYsUhk_8s-40" target="7YWgherM-hQTYsUhk_8s-46">
          <mxGeometry relative="1" as="geometry" />
        </mxCell>
        <mxCell id="7YWgherM-hQTYsUhk_8s-58" style="edgeStyle=orthogonalEdgeStyle;rounded=0;orthogonalLoop=1;jettySize=auto;html=1;exitX=0.5;exitY=0;exitDx=0;exitDy=0;entryX=0.143;entryY=1.075;entryDx=0;entryDy=0;entryPerimeter=0;" edge="1" parent="1" source="7YWgherM-hQTYsUhk_8s-46" target="7YWgherM-hQTYsUhk_8s-29">
          <mxGeometry relative="1" as="geometry" />
        </mxCell>
        <mxCell id="7YWgherM-hQTYsUhk_8s-62" value="Log out" style="rhombus;whiteSpace=wrap;html=1;fillColor=#fff2cc;strokeColor=#d6b656;" vertex="1" parent="1">
          <mxGeometry x="60" y="750" width="80" height="80" as="geometry" />
        </mxCell>
        <mxCell id="7YWgherM-hQTYsUhk_8s-67" style="edgeStyle=orthogonalEdgeStyle;rounded=0;orthogonalLoop=1;jettySize=auto;html=1;exitX=0;exitY=0.75;exitDx=0;exitDy=0;entryX=0.975;entryY=0.583;entryDx=0;entryDy=0;entryPerimeter=0;" edge="1" parent="1" source="7YWgherM-hQTYsUhk_8s-47" target="7YWgherM-hQTYsUhk_8s-62">
          <mxGeometry relative="1" as="geometry" />
        </mxCell>
        <mxCell id="7YWgherM-hQTYsUhk_8s-68" style="edgeStyle=orthogonalEdgeStyle;rounded=0;orthogonalLoop=1;jettySize=auto;html=1;exitX=0.5;exitY=0;exitDx=0;exitDy=0;entryX=0.418;entryY=1.1;entryDx=0;entryDy=0;entryPerimeter=0;" edge="1" parent="1" source="7YWgherM-hQTYsUhk_8s-62" target="7YWgherM-hQTYsUhk_8s-17">
          <mxGeometry relative="1" as="geometry" />
        </mxCell>
      </root>
    </mxGraphModel>
  </diagram>
</mxfile>
